<?xml version="1.0" standalone="no"?>
<!DOCTYPE svg PUBLIC "-//W3C//DTD SVG 20010904//EN"
 "http://www.w3.org/TR/2001/REC-SVG-20010904/DTD/svg10.dtd">
<svg version="1.0" xmlns="http://www.w3.org/2000/svg"
 width="500.000000pt" height="500.000000pt" viewBox="0 0 500.000000 500.000000"
 preserveAspectRatio="xMidYMid meet">

<g transform="translate(0.000000,500.000000) scale(0.100000,-0.100000)"
fill="#000000" stroke="none">
<path d="M2325 3995 c-256 -45 -437 -139 -606 -312 -213 -219 -318 -476 -319
-777 0 -165 44 -355 113 -491 76 -149 246 -340 382 -427 199 -128 370 -178
612 -178 237 0 409 50 598 174 63 41 164 123 203 166 61 65 147 192 187 274
85 177 108 284 107 491 0 141 -5 178 -40 315 -19 72 -77 195 -133 281 -130
198 -336 359 -554 434 -172 59 -387 79 -550 50z m275 -90 c168 -15 334 -74
475 -168 62 -41 235 -208 235 -226 0 -5 -77 -48 -171 -95 -146 -74 -177 -86
-220 -86 -28 0 -64 7 -80 16 -67 34 -159 56 -277 65 -145 11 -219 2 -342 -43
-146 -52 -139 -53 -342 48 -98 49 -178 93 -178 98 0 5 37 46 82 92 127 131
283 225 448 271 61 17 231 40 270 37 14 -1 59 -5 100 -9z m-524 -675 c21 0 91
18 153 40 63 22 117 37 119 35 3 -3 -13 -24 -34 -47 -22 -24 -61 -73 -88 -110
-40 -57 -48 -75 -48 -112 0 -158 151 -181 345 -52 30 20 59 36 64 36 6 0 98
-75 205 -167 107 -93 218 -188 246 -212 29 -24 52 -49 52 -57 0 -16 -48 -54
-69 -54 -9 1 -76 50 -149 110 -73 61 -137 110 -142 110 -14 0 -50 -38 -50 -51
0 -15 75 -87 168 -163 73 -59 87 -87 60 -114 -31 -31 -77 -7 -196 104 -67 62
-108 70 -132 24 -12 -23 -1 -36 118 -142 52 -46 63 -73 40 -96 -26 -26 -62
-13 -125 46 -35 32 -63 67 -63 76 0 43 -71 106 -119 106 -12 0 -26 12 -36 29
-18 37 -57 68 -94 76 -16 3 -34 17 -42 31 -16 30 -54 59 -90 67 -17 4 -31 18
-39 37 -21 50 -68 80 -127 80 -54 0 -77 -13 -145 -82 -20 -21 -39 -38 -42 -38
-3 0 -26 15 -51 34 -24 19 -96 62 -160 96 -63 34 -115 66 -115 71 0 22 21 157
31 199 14 56 26 93 50 147 11 24 19 46 19 50 0 3 11 26 25 50 l26 43 197 -100
c152 -77 207 -100 238 -100z m1311 163 c65 -97 131 -332 121 -436 -3 -37 -6
-40 -93 -86 -49 -26 -119 -62 -155 -81 -36 -19 -82 -47 -102 -63 l-37 -29 -73
60 c-40 33 -82 68 -93 78 -12 11 -54 48 -95 84 -41 35 -77 67 -80 70 -16 16
-119 99 -143 115 -36 23 -100 15 -136 -18 -32 -30 -94 -65 -144 -83 -44 -16
-87 -4 -87 23 0 29 126 191 176 226 107 75 186 76 359 3 40 -17 79 -26 117
-26 51 0 72 8 245 94 103 52 191 95 195 95 4 1 15 -11 25 -26z m-1656 -709
c19 -18 28 -39 32 -71 6 -57 32 -93 85 -118 24 -11 42 -26 42 -36 0 -42 74
-99 129 -99 23 0 34 -7 48 -30 17 -29 84 -70 114 -70 8 0 23 -14 33 -31 34
-58 115 -86 167 -59 15 9 26 7 47 -7 88 -60 177 -56 229 10 11 14 34 26 58 30
47 8 82 32 110 75 13 21 28 31 44 32 48 0 107 38 132 84 18 35 29 45 56 49 69
12 123 75 123 145 0 33 33 67 100 104 117 66 223 119 227 114 3 -2 0 -31 -7
-63 -66 -331 -252 -581 -542 -731 -153 -79 -285 -112 -453 -112 -437 0 -827
285 -964 706 -16 49 -32 117 -36 151 l-7 62 104 -55 c56 -31 115 -67 129 -80z
m303 70 c9 -8 16 -20 16 -26 0 -20 -133 -148 -155 -148 -23 0 -45 17 -45 36 0
19 133 154 152 154 9 0 24 -7 32 -16z m144 -132 c3 -17 -14 -43 -63 -98 -67
-74 -96 -89 -123 -62 -24 24 -11 52 58 120 58 56 76 69 98 66 19 -2 28 -9 30
-26z m132 -92 c16 -29 7 -47 -54 -112 -55 -59 -83 -71 -106 -43 -17 21 -5 43
64 118 57 61 79 69 96 37z m151 -111 c13 -26 3 -43 -70 -112 -52 -50 -63 -57
-81 -47 -35 19 -23 51 43 123 66 70 86 77 108 36z m125 -188 c-13 -20 -86 -10
-115 15 -3 3 8 18 24 34 l29 30 34 -34 c19 -18 31 -39 28 -45z"/>
<path d="M1786 1555 c-21 -16 -18 -43 5 -58 24 -15 49 -1 49 27 0 33 -29 49
-54 31z"/>
<path d="M704 1541 c-56 -25 -85 -75 -91 -154 -8 -107 48 -184 140 -194 67 -8
112 4 147 38 36 36 38 57 8 68 -19 7 -27 4 -46 -20 -24 -30 -75 -46 -110 -35
-70 23 -103 120 -64 196 33 67 119 82 171 30 27 -27 33 -29 51 -18 25 16 25
19 -2 53 -43 55 -129 70 -204 36z"/>
<path d="M1275 1530 c-19 -37 -19 -40 3 -40 17 0 72 48 72 63 0 4 -13 7 -30 7
-23 0 -33 -7 -45 -30z"/>
<path d="M1650 1490 l0 -70 -25 16 c-29 19 -94 21 -125 4 -24 -13 -59 -83 -60
-117 0 -40 30 -99 59 -116 36 -21 104 -22 121 -2 7 8 16 15 21 15 5 0 9 -7 9
-15 0 -10 10 -15 30 -15 l30 0 -2 183 -3 182 -27 3 -28 3 0 -71z m-17 -127
c16 -28 17 -38 7 -68 -29 -87 -131 -70 -132 22 -1 61 19 84 67 81 32 -2 42 -9
58 -35z"/>
<path d="M2443 1554 c-35 -8 -73 -60 -73 -101 0 -47 42 -85 112 -102 71 -17
90 -32 86 -67 -6 -53 -87 -58 -132 -9 -29 31 -66 34 -66 5 0 -11 13 -34 29
-52 28 -32 32 -33 104 -33 66 0 79 3 101 24 30 28 41 75 27 113 -11 30 -49 52
-125 75 -57 17 -76 29 -76 49 0 43 84 60 120 24 20 -20 70 -28 70 -10 0 20
-22 57 -41 69 -23 13 -101 22 -136 15z"/>
<path d="M2977 1554 c-4 -4 -7 -75 -7 -158 0 -181 7 -201 64 -201 30 0 40 4
42 19 1 11 -5 20 -16 23 -18 5 -20 18 -22 162 l-3 156 -25 3 c-14 2 -29 0 -33
-4z"/>
<path d="M3120 1545 c-6 -8 -9 -23 -5 -35 8 -25 51 -27 64 -2 20 38 -31 71
-59 37z"/>
<path d="M3430 1495 c0 -60 -9 -80 -25 -55 -10 16 -98 12 -123 -6 -74 -52 -66
-204 14 -234 38 -15 87 -12 112 6 20 14 22 14 22 0 0 -11 10 -16 30 -16 l30 0
0 185 0 185 -30 0 -30 0 0 -65z m-16 -117 c36 -51 3 -138 -52 -138 -60 0 -94
83 -56 138 21 31 87 31 108 0z"/>
<path d="M4044 1546 c-12 -31 0 -51 31 -51 27 0 30 3 30 30 0 25 -4 30 -28 33
-17 2 -29 -2 -33 -12z"/>
<path d="M1920 1490 c-6 -24 -17 -40 -25 -40 -9 0 -15 -10 -15 -25 0 -15 6
-25 14 -25 11 0 15 -21 17 -85 3 -61 8 -89 20 -101 19 -18 97 -29 117 -16 17
12 4 42 -18 42 -45 0 -50 9 -50 86 l0 74 35 0 c31 0 35 3 35 25 0 22 -4 25
-35 25 -34 0 -35 1 -35 40 0 36 -3 40 -25 40 -20 0 -26 -7 -35 -40z"/>
<path d="M1253 1449 c-42 -8 -63 -26 -80 -66 -19 -48 -16 -96 10 -134 29 -43
60 -59 116 -59 37 0 48 5 80 38 l36 37 -28 3 c-16 2 -36 -3 -46 -12 -37 -34
-121 -6 -121 39 0 12 17 15 95 15 89 0 95 1 95 20 0 29 -24 82 -43 98 -23 20
-77 29 -114 21z m77 -59 c11 -11 20 -24 20 -30 0 -13 -117 -13 -125 -1 -7 12
43 51 66 51 11 0 28 -9 39 -20z"/>
<path d="M2175 1450 c-71 -16 -95 -50 -95 -135 0 -46 5 -60 28 -86 23 -25 38
-33 78 -36 90 -9 144 39 144 129 0 91 -70 148 -155 128z m76 -67 c22 -26 18
-109 -6 -127 -50 -38 -105 -3 -105 66 0 24 7 49 17 60 20 23 76 24 94 1z"/>
<path d="M2763 1450 c-60 -14 -93 -60 -93 -130 0 -100 88 -157 184 -120 66 25
90 150 41 209 -34 40 -79 54 -132 41z m79 -67 c12 -11 18 -30 18 -58 0 -103
-114 -117 -127 -16 -8 55 16 91 59 91 17 0 40 -7 50 -17z"/>
<path d="M4244 1449 c-90 -26 -119 -163 -48 -230 31 -29 109 -37 151 -16 43
23 67 78 59 140 -6 59 -33 93 -85 107 -41 11 -36 11 -77 -1z m90 -71 c39 -55
6 -138 -54 -138 -36 0 -60 32 -60 80 0 51 24 80 65 80 24 0 39 -7 49 -22z"/>
<path d="M980 1320 l0 -130 30 0 30 0 0 83 c0 74 3 86 23 105 13 12 35 22 50
22 22 0 27 5 27 25 0 21 -5 25 -32 25 -17 0 -40 -7 -50 -17 -17 -15 -18 -15
-18 0 0 12 -9 17 -30 17 l-30 0 0 -130z"/>
<path d="M1780 1320 l0 -130 30 0 30 0 0 130 0 130 -30 0 -30 0 0 -130z"/>
<path d="M3120 1320 l0 -130 30 0 30 0 0 130 0 130 -30 0 -30 0 0 -130z"/>
<path d="M3585 1425 c-14 -13 -25 -28 -25 -33 0 -15 50 -21 58 -7 22 36 82 21
82 -20 0 -23 -3 -25 -54 -25 -44 0 -58 -4 -80 -26 -59 -59 -13 -130 78 -121
26 2 52 10 56 17 6 10 13 9 31 -4 34 -24 59 -21 59 7 0 13 -4 27 -9 33 -5 5
-11 41 -13 81 -5 97 -27 123 -105 123 -44 0 -58 -5 -78 -25z m113 -152 c-3
-25 -7 -28 -46 -31 -31 -2 -44 1 -48 13 -10 25 15 45 58 45 37 0 39 -2 36 -27z"/>
<path d="M3840 1320 l0 -130 30 0 30 0 0 79 c0 88 21 131 65 131 21 0 35 17
35 41 0 16 -62 10 -82 -8 -17 -15 -18 -15 -18 0 0 12 -9 17 -30 17 l-30 0 0
-130z"/>
<path d="M4041 1320 l-2 -130 36 0 35 0 0 130 0 130 -34 0 -34 0 -1 -130z"/>
</g>
</svg>
